# xmcd
#
# Track frame offsets:
#	150
#	13624
#	26802
#	37591
#	48379
#	60161
#	70164
#	81912
#	90010
#	99153
#	110119
#	121340
#	132722
#	146467
#	159913
#	171840
#	183236
#	194059
#	207764
#	220423
#	233041
#	244590
#	256679
#	265581
#	276253
#	287320
#	297880
#	310766
#	321903
#	334620
#
# Disc length: 4615 seconds
#
# Revision: 4
# Processed by: cddbd v1.5.2PL0 Copyright (c) Steve Scherf et al.
# Submitted via: dBpowerAMP V4.0
#
DISCID=9d12051e
DTITLE=Maddox Brothers and Rose - America's Most Colorful Hillbilly Band Vol.02
DYEAR=1995
DGENRE=Western Swing
TTITLE0=New Mule Skinner Blues
TTITLE1=I Couldn't Believe it Was True
TTITLE2=You've Been Talking in Your Sleep
TTITLE3=Gosh, I Miss You All The Time
TTITLE4=I'm Sending Daffydills
TTITLE5=South
TTITLE6=Chill in my Heart
TTITLE7=Texas Guitar Stomp
TTITLE8=Eight Thirty Blues
TTITLE9=It's Only Human Nature
TTITLE10=Why Not Confess
TTITLE11=I'll Never do it Again
TTITLE12=Just One Little Kiss
TTITLE13=I Love The Women
TTITLE14=I Still Write Your Name in The Sand
TTITLE15=Last Night I Heard You Crying in Your Sleep
TTITLE16=You're Gonna be Sorry Some of These Days
TTITLE17=No One is Sweeter Than You
TTITLE18=Detour #2
TTITLE19=Mama Says It's Naughty
TTITLE20=I've Stopped my Dreaming About You
TTITLE21=Kiss me Quick And Go
TTITLE22=Freight Train Boogie
TTITLE23=Lonesome Hearted Blues
TTITLE24=Cherokee Maiden
TTITLE25=Okie Boogie
TTITLE26=No One Will Ever Know
TTITLE27=Red Silk Stockings And Green Perfume
TTITLE28=Garden in The Sky
TTITLE29=Dear Lord, Take my Hand
EXTD=Recorded Modesto US-CA and Pasadena US-CA, 1947-1951.\nRoselea Arbana "Rose" Maddox (1926-08-15/1998-04-16): vocals\nCliff Maddox (1912/1949): mandolin\nFred Maddox (1919/1992): vocals (22,23,26,28), bass\nHenry Maddox (1928/1974): mandolin (after 
EXTD=1949), lead guitar\nDon Maddox (b.1922): fiddle\nCal Maddox (1915/1968): vocals (5,14,29), rhythm guitar, harmonica\nMrs. Lulu Maddox: vocal (5]\nBud Duncan: steel guitar\nLead guitar: Jimmy Winkle, Roy Nichols, or Gene Breeden\nTracks 17,22-28 are
EXTD=from previously unreleased acetates.\nCD: Arhoolie Records CD 437 (1995-08-10), UPC 096297043721.
EXTT0=
EXTT1=
EXTT2=
EXTT3=
EXTT4=
EXTT5=
EXTT6=
EXTT7=
EXTT8=
EXTT9=
EXTT10=
EXTT11=
EXTT12=
EXTT13=
EXTT14=
EXTT15=
EXTT16=
EXTT17=
EXTT18=
EXTT19=
EXTT20=
EXTT21=
EXTT22=
EXTT23=
EXTT24=
EXTT25=
EXTT26=
EXTT27=
EXTT28=
EXTT29=
PLAYORDER=
